<mxfile host="app.diagrams.net" modified="2022-09-24T15:45:11.321Z" agent="5.0 (Windows NT 10.0; Win64; x64) AppleWebKit/537.36 (KHTML, like Gecko) Chrome/105.0.0.0 Safari/537.36" etag="G8nIHjste1-zqpnSjfRm" version="20.3.6" type="github">
  <diagram id="C5RBs43oDa-KdzZeNtuy" name="Page-1">
    <mxGraphModel dx="1043" dy="633" grid="1" gridSize="10" guides="1" tooltips="1" connect="1" arrows="1" fold="1" page="1" pageScale="1" pageWidth="827" pageHeight="1169" math="0" shadow="0">
      <root>
        <mxCell id="WIyWlLk6GJQsqaUBKTNV-0" />
        <mxCell id="WIyWlLk6GJQsqaUBKTNV-1" parent="WIyWlLk6GJQsqaUBKTNV-0" />
        <mxCell id="n1x1h_2VIHjQlfSW5fTj-3" value="" style="edgeStyle=orthogonalEdgeStyle;rounded=0;orthogonalLoop=1;jettySize=auto;html=1;" edge="1" parent="WIyWlLk6GJQsqaUBKTNV-1" source="n1x1h_2VIHjQlfSW5fTj-0" target="n1x1h_2VIHjQlfSW5fTj-2">
          <mxGeometry relative="1" as="geometry" />
        </mxCell>
        <mxCell id="n1x1h_2VIHjQlfSW5fTj-0" value="Start" style="ellipse;whiteSpace=wrap;html=1;" vertex="1" parent="WIyWlLk6GJQsqaUBKTNV-1">
          <mxGeometry x="80" width="80" height="50" as="geometry" />
        </mxCell>
        <mxCell id="n1x1h_2VIHjQlfSW5fTj-2" value="Num;&lt;br&gt;sum = 0" style="whiteSpace=wrap;html=1;" vertex="1" parent="WIyWlLk6GJQsqaUBKTNV-1">
          <mxGeometry x="50" y="70" width="140" height="60" as="geometry" />
        </mxCell>
        <mxCell id="n1x1h_2VIHjQlfSW5fTj-4" value="Initialize&amp;nbsp;" style="text;html=1;strokeColor=none;fillColor=none;align=center;verticalAlign=middle;whiteSpace=wrap;rounded=0;" vertex="1" parent="WIyWlLk6GJQsqaUBKTNV-1">
          <mxGeometry x="270" y="65" width="60" height="30" as="geometry" />
        </mxCell>
        <mxCell id="n1x1h_2VIHjQlfSW5fTj-5" value="" style="strokeWidth=2;html=1;shape=mxgraph.flowchart.annotation_2;align=left;labelPosition=right;pointerEvents=1;" vertex="1" parent="WIyWlLk6GJQsqaUBKTNV-1">
          <mxGeometry x="240" y="30" width="50" height="100" as="geometry" />
        </mxCell>
        <mxCell id="n1x1h_2VIHjQlfSW5fTj-6" value="" style="endArrow=none;dashed=1;html=1;dashPattern=1 3;strokeWidth=2;rounded=0;entryX=0;entryY=0.5;entryDx=0;entryDy=0;entryPerimeter=0;exitX=1;exitY=0.5;exitDx=0;exitDy=0;" edge="1" parent="WIyWlLk6GJQsqaUBKTNV-1" source="n1x1h_2VIHjQlfSW5fTj-2" target="n1x1h_2VIHjQlfSW5fTj-5">
          <mxGeometry width="50" height="50" relative="1" as="geometry">
            <mxPoint x="380" y="310" as="sourcePoint" />
            <mxPoint x="430" y="260" as="targetPoint" />
            <Array as="points">
              <mxPoint x="210" y="100" />
              <mxPoint x="210" y="80" />
            </Array>
          </mxGeometry>
        </mxCell>
        <mxCell id="n1x1h_2VIHjQlfSW5fTj-11" value="" style="edgeStyle=orthogonalEdgeStyle;rounded=0;orthogonalLoop=1;jettySize=auto;html=1;" edge="1" parent="WIyWlLk6GJQsqaUBKTNV-1" source="n1x1h_2VIHjQlfSW5fTj-8" target="n1x1h_2VIHjQlfSW5fTj-10">
          <mxGeometry relative="1" as="geometry" />
        </mxCell>
        <mxCell id="n1x1h_2VIHjQlfSW5fTj-8" value="Input Num" style="shape=parallelogram;perimeter=parallelogramPerimeter;whiteSpace=wrap;html=1;fixedSize=1;" vertex="1" parent="WIyWlLk6GJQsqaUBKTNV-1">
          <mxGeometry x="60" y="160" width="120" height="60" as="geometry" />
        </mxCell>
        <mxCell id="n1x1h_2VIHjQlfSW5fTj-9" value="" style="endArrow=classic;html=1;rounded=0;exitX=0.5;exitY=1;exitDx=0;exitDy=0;entryX=0.5;entryY=0;entryDx=0;entryDy=0;" edge="1" parent="WIyWlLk6GJQsqaUBKTNV-1" source="n1x1h_2VIHjQlfSW5fTj-2" target="n1x1h_2VIHjQlfSW5fTj-8">
          <mxGeometry width="50" height="50" relative="1" as="geometry">
            <mxPoint x="380" y="310" as="sourcePoint" />
            <mxPoint x="430" y="260" as="targetPoint" />
          </mxGeometry>
        </mxCell>
        <mxCell id="n1x1h_2VIHjQlfSW5fTj-13" value="" style="edgeStyle=orthogonalEdgeStyle;rounded=0;orthogonalLoop=1;jettySize=auto;html=1;" edge="1" parent="WIyWlLk6GJQsqaUBKTNV-1" source="n1x1h_2VIHjQlfSW5fTj-10" target="n1x1h_2VIHjQlfSW5fTj-12">
          <mxGeometry relative="1" as="geometry" />
        </mxCell>
        <mxCell id="n1x1h_2VIHjQlfSW5fTj-10" value="for ( int i = 0; i &amp;lt; Num; i++)&lt;br&gt;sum += pow(i, 2)" style="whiteSpace=wrap;html=1;" vertex="1" parent="WIyWlLk6GJQsqaUBKTNV-1">
          <mxGeometry x="45" y="240" width="150" height="60" as="geometry" />
        </mxCell>
        <mxCell id="n1x1h_2VIHjQlfSW5fTj-12" value="i = Num&amp;nbsp; ?" style="rhombus;whiteSpace=wrap;html=1;" vertex="1" parent="WIyWlLk6GJQsqaUBKTNV-1">
          <mxGeometry x="65" y="330" width="110" height="110" as="geometry" />
        </mxCell>
        <mxCell id="n1x1h_2VIHjQlfSW5fTj-15" value="No" style="text;html=1;strokeColor=none;fillColor=none;align=center;verticalAlign=middle;whiteSpace=wrap;rounded=0;" vertex="1" parent="WIyWlLk6GJQsqaUBKTNV-1">
          <mxGeometry x="195" y="350" width="60" height="30" as="geometry" />
        </mxCell>
        <mxCell id="n1x1h_2VIHjQlfSW5fTj-16" value="" style="endArrow=none;html=1;rounded=0;exitX=1;exitY=0.5;exitDx=0;exitDy=0;entryX=1;entryY=0.5;entryDx=0;entryDy=0;" edge="1" parent="WIyWlLk6GJQsqaUBKTNV-1" source="n1x1h_2VIHjQlfSW5fTj-12" target="n1x1h_2VIHjQlfSW5fTj-10">
          <mxGeometry width="50" height="50" relative="1" as="geometry">
            <mxPoint x="175" y="530" as="sourcePoint" />
            <mxPoint x="250" y="410" as="targetPoint" />
            <Array as="points">
              <mxPoint x="280" y="385" />
              <mxPoint x="280" y="270" />
            </Array>
          </mxGeometry>
        </mxCell>
        <mxCell id="n1x1h_2VIHjQlfSW5fTj-17" value="print sum" style="rounded=1;whiteSpace=wrap;html=1;" vertex="1" parent="WIyWlLk6GJQsqaUBKTNV-1">
          <mxGeometry x="60" y="470" width="120" height="60" as="geometry" />
        </mxCell>
        <mxCell id="n1x1h_2VIHjQlfSW5fTj-18" value="" style="endArrow=classic;html=1;rounded=0;exitX=0.5;exitY=1;exitDx=0;exitDy=0;entryX=0.5;entryY=0;entryDx=0;entryDy=0;" edge="1" parent="WIyWlLk6GJQsqaUBKTNV-1" source="n1x1h_2VIHjQlfSW5fTj-12" target="n1x1h_2VIHjQlfSW5fTj-17">
          <mxGeometry width="50" height="50" relative="1" as="geometry">
            <mxPoint x="380" y="650" as="sourcePoint" />
            <mxPoint x="430" y="600" as="targetPoint" />
          </mxGeometry>
        </mxCell>
        <mxCell id="n1x1h_2VIHjQlfSW5fTj-19" value="Yes" style="text;html=1;strokeColor=none;fillColor=none;align=center;verticalAlign=middle;whiteSpace=wrap;rounded=0;" vertex="1" parent="WIyWlLk6GJQsqaUBKTNV-1">
          <mxGeometry x="115" y="440" width="60" height="30" as="geometry" />
        </mxCell>
        <mxCell id="n1x1h_2VIHjQlfSW5fTj-20" value="Stop" style="ellipse;whiteSpace=wrap;html=1;" vertex="1" parent="WIyWlLk6GJQsqaUBKTNV-1">
          <mxGeometry x="60" y="560" width="120" height="80" as="geometry" />
        </mxCell>
        <mxCell id="n1x1h_2VIHjQlfSW5fTj-24" value="" style="endArrow=classic;html=1;rounded=0;exitX=0.5;exitY=1;exitDx=0;exitDy=0;entryX=0.5;entryY=0;entryDx=0;entryDy=0;" edge="1" parent="WIyWlLk6GJQsqaUBKTNV-1" source="n1x1h_2VIHjQlfSW5fTj-17" target="n1x1h_2VIHjQlfSW5fTj-20">
          <mxGeometry width="50" height="50" relative="1" as="geometry">
            <mxPoint x="125" y="550" as="sourcePoint" />
            <mxPoint x="175" y="500" as="targetPoint" />
          </mxGeometry>
        </mxCell>
      </root>
    </mxGraphModel>
  </diagram>
</mxfile>
